<?xml version="1.0" standalone="no"?>
<!DOCTYPE svg PUBLIC "-//W3C//DTD SVG 1.0//EN" "http://www.w3.org/TR/2001/REC-SVG-20010904/DTD/svg10.dtd">
<svg xmlns="http://www.w3.org/2000/svg" xmlns:xlink="http://www.w3.org/1999/xlink" id="body_1" width="800" height="600">

<g transform="matrix(1.1428573 0 0 1.1428573 0 0)">
	<g transform="matrix(1.1666667 0 0 1.1666667 0 0)">
		<g transform="matrix(0.85714287 0 0 0.85714287 0 0)">
			<g transform="matrix(1.1666667 0 0 1.1666667 0 0)">
				<g transform="matrix(0.9 0 0 0.9 75.000015 -0)">
					<g>
                        <path d="M125.23 389.24C 194.14001 422.08 305.86002 422.09 374.77 389.24C 443.67996 356.38998 443.66998 303.15 374.77 270.31C 305.87 237.47 194.13998 237.47 125.229996 270.31C 56.320007 303.15 56.33 356.4 125.23 389.24z" stroke="none" fill="#F5F5F5" fill-rule="nonzero" />
					</g>
					<g>
                        <path d="M351.55 354.02C 351.55 347.97247 361.8385 343.06998 374.53 343.06998C 387.2215 343.06998 397.51 347.97247 397.51 354.02C 397.51 360.0675 387.2215 364.97 374.53 364.97C 361.8385 364.97 351.55 360.0675 351.55 354.02" stroke="none" fill="#EBEBEB" fill-rule="nonzero" />
					</g>
					<g>
                        <path d="M120 355.59L128.13 350.9C 132.6692 347.19574 136.1241 342.33472 138.13 336.83C 140.64 329.90997 140.29001 324.65 138.49 322.00998C 136.28 318.75998 130.55 319.33 130.32 326.16998C 129.84 339.65 125.91 349 120 355.59z" stroke="none" fill="#6DF183" fill-rule="nonzero" />
                        <path d="M120 355.59L128.13 350.9C 132.6692 347.19574 136.1241 342.33472 138.13 336.83C 140.64 329.90997 140.29001 324.65 138.49 322.00998C 136.28 318.75998 130.55 319.33 130.32 326.16998C 129.84 339.65 125.91 349 120 355.59z" stroke="none" fill="#000000" fill-rule="nonzero" fill-opacity="0.2" />
                        <path d="M120 356.09C 119.782776 356.08737 119.592125 355.94473 119.52824 355.7371C 119.46435 355.52945 119.54185 355.30432 119.72 355.18C 138.52 342.18 134.88 324.05 134.84 323.87C 134.80249 323.69138 134.86313 323.50632 134.99907 323.3845C 135.13501 323.2627 135.3256 323.2227 135.49907 323.2795C 135.67253 323.33633 135.80249 323.48138 135.84 323.66C 135.84 323.85 139.68 342.6 120.31999 356C 120.22605 356.06418 120.11364 356.0958 120 356.09z" stroke="none" fill="#FFFFFF" fill-rule="nonzero" />
                        <path d="M103.71 365C 103.71 365 100.88 362.7 101.56 359.58C 102.24 356.45996 104.07 354.22 100.939995 350.19998C 97.80999 346.17996 96.939995 340.81998 100.67999 337.91998C 103.52999 335.66998 107.979996 338.84998 109.579994 332.91998C 110.759995 328.58 110.35999 318.96997 115.88999 315.77C 121.41999 312.57 124.88999 317.38998 124.01999 323.91C 123.25999 329.74 122.17999 335.35 123.01999 336.91C 124.63999 339.91 127.40999 339.5 127.27999 344.98C 127.16999 350.08002 122.33999 354.30002 122.33999 354.30002L122.33999 354.30002L103.71 365z" stroke="none" fill="#6DF183" fill-rule="nonzero" />
                        <path d="M113 360.11C 112.74735 360.10742 112.53467 359.92026 112.5 359.66998C 111.07 347.81998 114.5 327.36 117.3 321.27997C 117.3477 321.14352 117.45211 321.0344 117.58631 320.98074C 117.72051 320.92706 117.87137 320.93408 118 321C 118.12059 321.05432 118.21411 321.15506 118.259315 321.27936C 118.30451 321.40366 118.29755 321.54092 118.24 321.66C 115.47 327.66 112.159996 348.18 113.53 359.51C 113.55926 359.78305 113.362816 360.0286 113.09 360.06L113.09 360.06L113 360.11z" stroke="none" fill="#FFFFFF" fill-rule="nonzero" />
                        <path d="M112.73 350.88C 112.65348 350.88373 112.5774 350.86646 112.51 350.83002C 109.04 349.14 106.840004 343.11002 106.75 342.83002C 106.68328 342.6607 106.71385 342.4685 106.8298 342.32822C 106.945755 342.18793 107.12878 342.12173 107.30764 342.15536C 107.4865 342.18903 107.63296 342.3172 107.69 342.49002C 107.69 342.55002 109.840004 348.39 112.950005 349.90002C 113.16013 350.00177 113.27187 350.23538 113.2192 350.46283C 113.166534 350.69028 112.96347 350.851 112.73 350.85004L112.73 350.85004L112.73 350.88z" stroke="none" fill="#FFFFFF" fill-rule="nonzero" />
                        <path d="M112.67 354.88C 112.46479 354.8802 112.2812 354.75247 112.21 354.56C 112.106445 354.30594 112.22692 354.0159 112.479996 353.91C 118.31999 351.57 121.95999 344.62 122 344.54C 122.12702 344.29425 122.42923 344.198 122.674995 344.325C 122.92076 344.45206 123.01702 344.75424 122.89 345C 122.729996 345.3 119.04 352.36 112.89 354.84C 112.82148 354.8725 112.74558 354.8863 112.67 354.88z" stroke="none" fill="#FFFFFF" fill-rule="nonzero" />
                        <path d="M316.8 301.08C 316.8 301.08 312.43 294 312 286.31C 311.57 278.62 313.26 275.41998 315.58 274.5C 317.89996 273.58002 318.08 276.41 319.27 278.08C 320.46 279.74997 322.88998 278.8 323.78998 273.59C 324.68997 268.38 327.96997 259.59 334.78998 257.88C 342.28998 256.02002 338.27 264.82 336.37997 268.25C 334.48996 271.68 333.02997 276.36 334.27 277.63C 335.51 278.90002 337.44 276.55002 339.27 278.73C 341.5 281.36002 334.56998 290.83002 330.59 293.12003L330.59 293.12003L316.8 301.08z" stroke="none" fill="#6DF183" fill-rule="nonzero" />
                        <path d="M322.79 298.11C 322.65735 298.10477 322.53223 298.04703 322.44217 297.9495C 322.35214 297.85196 322.30457 297.72263 322.31 297.59C 322.98718 285.2196 326.84485 273.23325 333.51 262.79C 333.58633 262.68005 333.70428 262.6061 333.83652 262.58533C 333.96872 262.56458 334.1037 262.5988 334.21002 262.68002C 334.42798 262.842 334.4768 263.14832 334.32 263.37003C 327.774 273.66046 323.9859 285.46213 323.32 297.64C 323.31226 297.7727 323.252 297.89685 323.15256 297.98505C 323.0531 298.0732 322.92264 298.11816 322.79 298.11z" stroke="none" fill="#FFFFFF" fill-rule="nonzero" />
                        <path d="M323.36 292.2C 323.27637 292.19922 323.19415 292.17868 323.12 292.14C 320.32 290.59003 318.77 285.99002 318.71 285.80002C 318.66544 285.67407 318.67313 285.53552 318.73138 285.41528C 318.7896 285.29504 318.89355 285.20312 319.02 285.16C 319.28232 285.0746 319.56424 285.2178 319.65 285.48C 319.65 285.48 321.15 289.91 323.65 291.26C 323.88535 291.3991 323.96915 291.69907 323.84 291.94C 323.74756 292.11603 323.55792 292.21875 323.36 292.2z" stroke="none" fill="#FFFFFF" fill-rule="nonzero" />
                        <path d="M323.85 289.17C 323.62207 289.16757 323.42468 289.0113 323.37 288.79C 323.33682 288.66263 323.3563 288.52728 323.424 288.4144C 323.49173 288.30154 323.602 288.22067 323.72998 288.19C 330.94998 286.36002 333.44998 282.58002 333.46997 282.54C 333.61908 282.30527 333.93024 282.23587 334.16498 282.385C 334.3997 282.53412 334.4691 282.84528 334.31998 283.08002C 334.21 283.25003 331.61 287.22003 323.97998 289.16L323.97998 289.16L323.85 289.17z" stroke="none" fill="#FFFFFF" fill-rule="nonzero" />
                        <path d="M208 285.54C 208 285.54 198.41 283.2 197.91 265.24002C 197.38 245.86002 200.26001 223.24002 188.91 221.41002C 177.56 219.58002 171.26001 233.41002 171.40001 249.56001C 171.53001 263.7 177.23001 294.40002 207.96 300.42L207.96 300.42L208 285.54z" stroke="none" fill="#6DF183" fill-rule="nonzero" />
                        <path d="M208 285.54C 208 285.54 198.41 283.2 197.91 265.24002C 197.38 245.86002 200.26001 223.24002 188.91 221.41002C 177.56 219.58002 171.26001 233.41002 171.40001 249.56001C 171.53001 263.7 177.23001 294.40002 207.96 300.42L207.96 300.42L208 285.54z" stroke="none" fill="#000000" fill-rule="nonzero" fill-opacity="0.2" />
                        <path d="M208 298.58L207.91 298.58C 201 297.31998 195.37001 293.50998 191.18001 287.27C 178.76001 268.74 182.67001 234.13998 183.96 228.09999C 184.01996 227.8326 184.2805 227.66037 184.55 227.70999C 184.81883 227.77452 184.99017 228.03813 184.94 228.31C 183.67 234.31 179.78 268.47 192.01001 286.71C 195.60931 292.429 201.4426 296.3759 208.09001 297.59C 208.22182 297.6142 208.3384 297.69028 208.41359 297.8012C 208.4888 297.91214 208.51633 298.04858 208.49 298.18C 208.4461 298.41504 208.23903 298.58408 208 298.58z" stroke="none" fill="#FFFFFF" fill-rule="nonzero" />
                        <path d="M208 344.67C 198.09 346.01 182 345.99002 172.70999 338.67C 163.41998 331.35 165.35999 325.05002 168.93 322.42C 172.5 319.79 175.59999 316.79 169.45999 310.95C 163.31999 305.11002 153.45999 295.73 150.26 281.66C 147.06 267.59 148.64 258.79 154.92 255.86C 161.01 253.02 162.62 257.54 166.35 266.86C 170.08002 276.17996 178.47 268.18997 185.65001 271.09998C 192.83002 274.00998 192.54001 279.77 192.99 284.71997C 193.44 289.66995 195.81001 291.03998 199.88 291.03998C 203.95 291.03998 208 293.37997 208 298.03998L208 298.03998L208 344.67z" stroke="none" fill="#6DF183" fill-rule="nonzero" />
                        <path d="M208 328.33C 207.95718 328.33948 207.91281 328.33948 207.87 328.33C 207.44 328.21 197.19 325.22998 182.26 311.52C 166.36 296.91998 158.86 275.02 158.78 274.8C 158.70033 274.53815 158.84157 274.2601 159.1 274.16998C 159.35945 274.08368 159.64009 274.22177 159.73001 274.47998C 159.80002 274.69998 167.23001 296.36 182.94 310.77997C 197.66 324.30997 208.03 327.33997 208.14 327.36996C 208.40509 327.4473 208.55731 327.72488 208.48 327.98996C 208.41338 328.19742 208.21779 328.33597 208 328.33z" stroke="none" fill="#FFFFFF" fill-rule="nonzero" />
                        <path d="M186.43 315C 186.22383 315.00317 186.03867 314.8744 185.96999 314.68C 182.75998 306.44 182.02998 288.81 181.96999 288.06C 181.96414 287.78577 182.1762 287.55606 182.44998 287.54C 182.72041 287.5439 182.94452 287.7508 182.96999 288.02002C 182.96999 288.2 183.71999 306.23 186.86998 314.32C 186.91864 314.4446 186.91534 314.5835 186.86086 314.70563C 186.80635 314.8278 186.7052 314.923 186.57999 314.97C 186.53174 314.9873 186.48119 314.99744 186.43 315z" stroke="none" fill="#FFFFFF" fill-rule="nonzero" />
                        <path d="M186.35 326.85C 185.42804 326.85724 184.5065 326.8105 183.59001 326.71C 183.41138 326.68857 183.25775 326.57346 183.187 326.40802C 183.11624 326.2426 183.13911 326.052 183.247 325.90802C 183.35487 325.76404 183.53137 325.68857 183.71 325.71C 183.8 325.71 193.11 326.77 197.38 322.41998C 197.50122 322.27655 197.6926 322.2131 197.87549 322.25577C 198.05838 322.29843 198.20195 322.43997 198.2472 322.62225C 198.29243 322.8045 198.23174 322.99677 198.09001 323.12C 195 326.31 189.61 326.85 186.35 326.85z" stroke="none" fill="#FFFFFF" fill-rule="nonzero" />
					</g>
					<g>
                        <path d="M179.15 137.49L178.06999 131.26001L172.51 134.92001C 172.00197 133.92007 171.28189 133.04301 170.4 132.35L170.4 132.35L173.06 125.15001L168.06 124.04001L164.4 131.04001C 163.07585 131.26338 161.79198 131.68124 160.59 132.28001L160.59 132.28001L159 127L153.06 131.67L153.45 137.87C 152.24037 139.22499 151.14339 140.67647 150.17 142.20999L150.17 142.20999L145.27 141.95999L141.83 149.67L146.04001 151.47C 145.60048 153.06476 145.32242 154.69963 145.21 156.35L145.21 156.35L139.86 161.27L140.93001 167.51001L146.50002 163.85C 147.00514 164.84904 147.72583 165.72342 148.61002 166.41L148.61002 166.41L146 173.62L151 174.72L156.24 169.62C 157.45001 169.43 157.15001 167.15 158.47 166.5L158.47 166.5L160.06 171.76L165.98999 167.09999L165.84 164.65999C 167.04 163.31999 171.58 160.37 172.56 158.82999L172.56 158.82999L173.79 156.82999L177.23 149.11998L175.62999 146.21999L173.84999 142.43999L179.15 137.49zM161 158C 156.44 161.58 155 162.37 154.23 157.58C 153.45999 152.79001 156.06999 145.51001 160.62999 141.92C 165.18999 138.32999 166.93 138.08 167.74998 142.86C 168.56998 147.64 165.57 154.46 161 158z" stroke="none" fill="#E0E0E0" fill-rule="nonzero" />
                        <path d="M168.1 124.04L174.59 127.78L170.93 134.76L164.44 131.02L168.1 124.04" stroke="none" fill="#F5F5F5" fill-rule="nonzero" />
                        <path d="M184.56 135L179 138.66L172.51 134.92L178.07 131.26L184.56 135" stroke="none" fill="#F5F5F5" fill-rule="nonzero" />
                        <path d="M183.67 152.83L179.46 151.04L172.97 147.3L177.18 149.09L183.67 152.83" stroke="none" fill="#E0E0E0" fill-rule="nonzero" />
                        <path d="M145.99 173.62L152.48 177.35L155.14 170.15L148.65 166.41L145.99 173.62" stroke="none" fill="#E0E0E0" fill-rule="nonzero" />
                        <path d="M166.49 175.5L160.01 171.76L158.42 166.5L164.91 170.24L166.49 175.5" stroke="none" fill="#E0E0E0" fill-rule="nonzero" />
                        <path d="M185.63 141.23L184.56 135L179 138.66C 178.48827 137.6596 177.76485 136.78262 176.88 136.09L176.88 136.09L179.54001 128.89L174.59001 127.78L170.92001 134.78C 169.59587 135.00337 168.312 135.42123 167.11002 136.02L167.11002 136.02L165.53001 130.76001L159.59001 135.43001L159.98001 141.63C 158.76904 142.99457 157.67204 144.45612 156.7 146L156.7 146L151.79 145.75L148.34999 153.46L152.56 155.26001C 152.12447 156.85904 151.84647 158.49686 151.73 160.15001L151.73 160.15001L146.39 165L147.46 171.24L153.02 167.58C 153.53188 168.5775 154.25539 169.45119 155.14 170.14L155.14 170.14L152.48 177.34L157.48 178.45L161.14 171.45C 162.46927 171.2291 163.7573 170.80763 164.96 170.2L164.96 170.2L166.54001 175.45999L172.48001 170.79999L172.09001 164.59999C 173.29964 163.245 174.39662 161.79352 175.37001 160.26L175.37001 160.26L180.28001 160.5L183.72002 152.79L179.45 151C 179.89268 149.40216 180.17409 147.76398 180.29 146.11L180.29 146.11L185.63 141.23zM167.5 161.78C 162.95 165.36 158.59 164.39 157.76 159.61C 156.93 154.83 159.95999 148.04001 164.51999 144.46C 169.07999 140.88 173.43 141.86 174.26 146.64C 175.09 151.42 172.06 158.2 167.5 161.78z" stroke="none" fill="#EBEBEB" fill-rule="nonzero" />
                        <path d="M165.53 130.74L159.04 127L153.1 131.67L159.59 135.41L165.53 130.74" stroke="none" fill="#F5F5F5" fill-rule="nonzero" />
                        <path d="M153.1 131.67L153.49 137.87L159.98 141.61L159.59 135.41L153.1 131.67" stroke="none" fill="#E0E0E0" fill-rule="nonzero" />
                        <path d="M156.7 145.95L150.21 142.21L145.31 141.97L151.79 145.71L156.7 145.95" stroke="none" fill="#F5F5F5" fill-rule="nonzero" />
                        <path d="M145.31 141.97L141.87 149.67L148.35 153.41L151.79 145.71L145.31 141.97" stroke="none" fill="#E0E0E0" fill-rule="nonzero" />
                        <path d="M151.73 160.09L145.25 156.35L139.9 161.27L146.38 165.01L151.73 160.09" stroke="none" fill="#F5F5F5" fill-rule="nonzero" />
                        <path d="M147.46 171.25L140.97 167.51L139.9 161.27L146.38 165.01L147.46 171.25" stroke="none" fill="#E0E0E0" fill-rule="nonzero" />
                        <path d="M174.59 127.78L168.1 124.04L173.06 125.15L179.54 128.89L174.59 127.78" stroke="none" fill="#F5F5F5" fill-rule="nonzero" />
                        <path d="M150.09 109.21L150.09 99.9L142.68 103.24C 142.28752 101.66045 141.60971 100.16591 140.68 98.83L140.68 98.83L145.34999 89.42L139.65 86.13L133.82999 94.88C 132.20808 94.7383 130.57396 94.897644 129.00998 95.35L129.00998 95.35L128.18997 87.259995L120.129974 91.92L119.31998 100.92C 117.56584 102.47432 115.95288 104.180984 114.49998 106.02L114.49998 106.02L108.67998 104.02L102.97998 113.899994L107.639984 117.899994C 106.77893 120.077484 106.10971 122.32605 105.639984 124.619995L105.639984 124.619995L98.22998 129.83L98.22998 139.15L105.639984 135.81C 106.032455 137.38956 106.71025 138.8841 107.639984 140.22L107.639984 140.22L103 149.64L108.7 152.93L114.52 144.18C 116.1419 144.32121 117.77593 144.16188 119.34 143.70999L119.34 143.70999L120.149994 151.79999L128.20999 147.13998L129.03 138.13998C 131.54567 137.22214 133.7742 135.65596 135.49 133.59999L135.49 133.59999L139.67 135.06999L145.37 125.19999L141.87 122.19999C 142.6298 119.69835 142.91138 117.07592 142.7 114.469986L142.7 114.469986L150.09 109.21zM124.159996 132.47C 117.979996 136.04001 114.159996 133.47 114.159996 126.36C 114.159996 119.25 119.27 110.46 125.46 106.89C 131.65 103.32 135.39 105.89 135.39 113.06C 135.39 120.229996 130.35 128.89 124.16 132.47z" stroke="none" fill="#E0E0E0" fill-rule="nonzero" />
                        <path d="M146.13 89.86L139.65 86.13L133.83 94.88L140.31 98.62L146.13 89.86" stroke="none" fill="#F5F5F5" fill-rule="nonzero" />
                        <path d="M156.58 103.64L150.09 99.9L142.68 103.24L149.17 106.98L156.58 103.64" stroke="none" fill="#F5F5F5" fill-rule="nonzero" />
                        <path d="M126.61 155.54L120.13 151.8L119.32 143.71L125.8 147.45L126.61 155.54" stroke="none" fill="#E0E0E0" fill-rule="nonzero" />
                        <path d="M102.97 149.64L109.46 153.38L114.13 143.97L107.64 140.23L102.97 149.64" stroke="none" fill="#E0E0E0" fill-rule="nonzero" />
                        <path d="M156.58 113L156.58 103.69L149.17 107C 148.78163 105.41902 148.10352 103.92375 147.17 102.59L147.17 102.59L151.84 93.17999L146.14 89.87999L140.31999 98.63999C 138.69807 98.49337 137.06303 98.6528 135.49998 99.10999L135.49998 99.10999L134.68 91L126.619995 95.66L125.799995 104.66C 124.048386 106.21691 122.43563 107.92335 120.979996 109.76L120.979996 109.76L115.159996 107.76L109.46 117.64L114.13 121.64C 113.264404 123.81591 112.59508 126.064865 112.13 128.36L112.13 128.36L104.72 133.57L104.72 142.89001L112.130005 139.55002C 112.51815 141.13107 113.1963 142.62639 114.130005 143.96002L114.130005 143.96002L109.46001 153.37003L115.16 156.66002L120.98 147.91002C 122.6019 148.05171 124.23602 147.89236 125.8 147.44002L125.8 147.44002L126.62 155.53001L134.68001 150.87001L135.49 141.87001C 137.24414 140.3157 138.85712 138.60901 140.31001 136.77L140.31001 136.77L146.13002 138.77L151.83002 128.90001L147.16002 124.90001C 148.02538 122.72399 148.69469 120.475075 149.16002 118.18001L149.16002 118.18001L156.58 113zM130.65 136.26C 124.45999 139.83 119.439995 136.93 119.439995 129.79C 119.439995 122.649994 124.439995 113.95999 130.65 110.37999C 136.85999 106.79999 141.84999 109.70999 141.84999 116.84999C 141.84999 123.98999 136.83 132.63 130.65 136.21z" stroke="none" fill="#EBEBEB" fill-rule="nonzero" />
                        <path d="M114.5 106.04L120.98 109.78L115.16 107.75L108.68 104L114.5 106.04" stroke="none" fill="#F0F0F0" fill-rule="nonzero" />
                        <path transform="matrix(0.49969766 -0.8661999 0.8661999 0.49969766 -41.42 149.93)"  d="M103.37 107.07L114.78 107.07L114.78 114.56L103.37 114.56L103.37 107.07z" stroke="none" fill="#F5F5F5" fill-rule="nonzero" />
                        <path d="M102.97 113.88L109.46 117.62L114.13 121.64L107.64 117.91L102.97 113.88" stroke="none" fill="#E0E0E0" fill-rule="nonzero" />
                        <path d="M105.64 124.63L112.13 128.37L104.72 133.58L98.23 129.84L105.64 124.63" stroke="none" fill="#F5F5F5" fill-rule="nonzero" />
                        <path d="M98.23 129.84L104.72 133.58L104.72 142.9L98.23 139.16L98.23 129.84" stroke="none" fill="#E0E0E0" fill-rule="nonzero" />
                        <path d="M134.68 91L128.19 87.26L120.13 91.92L126.61 95.66L134.68 91" stroke="none" fill="#F5F5F5" fill-rule="nonzero" />
					</g>
					<g>
                        <path d="M217.88 358.05L311.88 303.77C 312.30444 303.62076 312.58844 303.21988 312.58844 302.77C 312.58844 302.3201 312.30444 301.91922 311.88 301.77L311.88 301.77L303.19 296.77C 302.09854 296.22076 300.8115 296.22076 299.72 296.77L299.72 296.77L205.69 351C 205.26556 351.14923 204.98157 351.5501 204.98157 352C 204.98157 352.4499 205.26556 352.85077 205.69 353L205.69 353L214.41 358C 215.49355 358.56497 216.78064 358.58353 217.88 358.05z" stroke="none" fill="#E0E0E0" fill-rule="nonzero" />
                        <path d="M309.3 94.2L224.53998 143.14C 221.98453 144.80771 220.37645 147.59306 220.20998 150.64L220.20998 150.64L220.20998 351.71C 220.20998 354.47 222.14998 355.59 224.53998 354.21L224.53998 354.21L309.3 305.27C 311.859 303.6057 313.46826 300.81833 313.62997 297.77L313.62997 297.77L313.62997 96.7C 313.63 93.94 311.7 92.82 309.3 94.2z" stroke="none" fill="#455A64" fill-rule="nonzero" />
                        <path d="M224.54 143.14L309.3 94.2C 311.44 92.96 313.21 93.729996 313.56998 95.88C 313.1656 93.145836 311.61172 90.71495 309.3 89.2L309.3 89.2L305.78 87.2C 303.05847 85.8192 299.84155 85.8192 297.12 87.2L297.12 87.2L212.35 136.1C 211.07327 136.90057 210.02045 138.01189 209.29001 139.33L209.29001 139.33L221.48001 146.33C 222.21019 145.02231 223.26381 143.92392 224.54 143.14z" stroke="none" fill="#37474F" fill-rule="nonzero" />
                        <path d="M208 344.67C 208.16649 347.71695 209.77457 350.50232 212.33 352.17L212.33 352.17L215.86 354.17C 218.3311 355.4062 221.21208 355.52988 223.78 354.51C 221.78 355.29 220.19 354.14 220.19 351.67L220.19 351.67L220.19 150.64C 220.24011 149.1313 220.67746 147.66086 221.46 146.37L221.46 146.37L209.27 139.37C 208.49838 140.65106 208.06163 142.10576 208 143.6L208 143.6L208 344.67z" stroke="none" fill="#263238" fill-rule="nonzero" />
                        <path d="M226.87 169.93L307 123.68C 308.44 122.86 309.6 123.53 309.6 125.18L309.6 125.18L309.6 274C 309.50253 275.82938 308.5362 277.5019 307 278.5L307 278.5L226.9 324.75C 225.45999 325.58 224.29999 324.91 224.29999 323.25L224.29999 323.25L224.29999 174.43C 224.39227 172.60664 225.34644 170.93593 226.87 169.93z" stroke="none" fill="#FFFFFF" fill-rule="nonzero" />
                        <path d="M266.92 126.29C 266.02304 126.87885 265.45892 127.85862 265.40002 128.93001C 265.40002 129.93001 266.08002 130.3 266.92 129.81001C 267.82062 129.22461 268.38586 128.24281 268.44 127.17001C 268.44 126.2 267.76 125.81 266.92 126.29z" stroke="none" fill="#37474F" fill-rule="nonzero" />
                        <path d="M266.92 308.74C 263.3745 311.05942 261.14618 314.9293 260.92 319.16C 260.92 322.99 263.61002 324.55002 266.92 322.63C 270.46432 320.30945 272.69226 316.44025 272.92 312.21C 272.94 308.38 270.24 306.82 266.92 308.74z" stroke="none" fill="#37474F" fill-rule="nonzero" />
                        <path d="M252.53 141.77C 250.74763 142.95316 249.63397 144.91322 249.53 147.05C 249.53 148.99 250.89 149.78 252.53 148.81C 254.33138 147.63794 255.46468 145.67603 255.58 143.53C 255.58 141.59 254.22 140.8 252.53 141.77z" stroke="none" fill="#37474F" fill-rule="nonzero" />
                        <path d="M260 141.11C 260 142.41 261 142.9 262.17 142.21L262.17 142.21L282.17 130.64001C 283.42657 129.85526 284.23288 128.51762 284.34003 127.040016C 284.34003 125.750015 283.34003 125.26002 282.17 125.95002L282.17 125.95002L262.17 137.52002C 260.9162 138.30273 260.11026 139.636 260 141.11z" stroke="none" fill="#37474F" fill-rule="nonzero" />
                        <path d="M214.76 176.37C 216.19928 177.30751 217.10555 178.8749 217.2 180.59C 217.2 182.15 216.11 182.78 214.76 182C 213.32571 181.05911 212.42377 179.49277 212.33 177.78C 212.33 176.23 213.42 175.6 214.76 176.37z" stroke="none" fill="#37474F" fill-rule="nonzero" />
                        <path d="M214.76 195.15C 216.19928 196.08751 217.10555 197.65489 217.2 199.37C 217.2 200.92 216.11 201.54999 214.76 200.78C 213.32571 199.83911 212.42377 198.27277 212.33 196.56C 212.33 195 213.42 194.37 214.76 195.15z" stroke="none" fill="#37474F" fill-rule="nonzero" />
                        <path d="M214 176.75C 215.43929 177.68752 216.34555 179.2549 216.44 180.97C 216.44 182.52 215.35 183.15 214 182.38C 212.56071 181.44249 211.65445 179.8751 211.56 178.16C 211.57 176.6 212.66 176 214 176.75z" stroke="none" fill="#455A64" fill-rule="nonzero" />
                        <path d="M214 195.52C 215.44205 196.45958 216.34868 198.03131 216.44 199.75C 216.44 201.3 215.35 201.93 214 201.15C 212.55707 200.21594 211.64964 198.64653 211.56 196.93C 211.57 195.38 212.66 194.75 214 195.52z" stroke="none" fill="#455A64" fill-rule="nonzero" />
                        <path d="M325.82 129.89C 325.82 128.23 324.66 127.56 323.22 128.39L323.22 128.39L313.63 133.92L243.12 174.64C 241.58379 175.63812 240.61746 177.31061 240.51999 179.14L240.51999 179.14L240.51999 327.92C 240.51999 329.58002 241.68 330.25 243.12 329.42L243.12 329.42L313.66 288.69L323.22 283.17C 324.75623 282.1719 325.72256 280.4994 325.82 278.67L325.82 278.67L325.82 129.89z" stroke="none" fill="#FFFFFF" fill-rule="nonzero" />
                        <path d="M326.82 129.89C 326.9487 128.86472 326.4508 127.862076 325.55618 127.34495C 324.66156 126.82782 323.54425 126.89678 322.72 127.52L322.72 127.52L313.57 132.81L242.62001 173.81C 240.76562 174.98048 239.60625 176.9888 239.52 179.18L239.52 179.18L239.52 327.92C 239.43822 328.93723 239.92233 329.917 240.78 330.47C 241.13806 330.67813 241.54587 330.78525 241.95999 330.78C 242.54619 330.76172 243.11783 330.59296 243.62 330.29L243.62 330.29L314.62 289.29L323.75 284.02002C 325.593 282.83862 326.7486 280.83682 326.85 278.65002L326.85 278.65002L326.82 129.89zM313.59 287.58L312.77 288.06L242.65999 328.54C 242.42134 328.72336 242.11281 328.78946 241.81999 328.72C 241.68999 328.64 241.56 328.36002 241.56 327.9L241.56 327.9L241.56 179.14C 241.66492 177.66888 242.43896 176.32721 243.66 175.5L243.66 175.5L313.7 135L323.7 129.21C 323.93866 129.02667 324.24716 128.96056 324.54 129.03001C 324.67 129.11002 324.80002 129.39001 324.80002 129.85002L324.80002 129.85002L324.80002 278.67C 324.6951 280.14114 323.92105 281.48282 322.7 282.31003L322.7 282.31003L313.57 287.58002z" stroke="none" fill="#6DF183" fill-rule="nonzero" />
                        <path d="M283.17 164.46C 292.17 159.28001 299.42 163.46 299.42 173.85C 299.42 184.24 292.14 196.85 283.17 201.99C 274.2 207.13 266.92 202.99 266.92 192.61C 266.92 182.23 274.2 169.65 283.17 164.46z" stroke="none" fill="#6DF183" fill-rule="nonzero" />
                        <path d="M283.17 172.62C 286.08002 170.94 288.44 172.29999 288.44 175.62C 288.23947 179.32951 286.28186 182.72098 283.17 184.75C 280.26 186.43 277.90002 185.07 277.90002 181.75C 278.10056 178.04048 280.05817 174.64902 283.17 172.62z" stroke="none" fill="#6DF183" fill-rule="nonzero" />
                        <path d="M293.44 190.54C 293.44 185.01999 289.57 182.78 284.78 185.54L284.78 185.54L281.78 187.26999C 277 190.02998 273.12 196.74998 273.12 202.26999L273.12 202.26999L273.12 203.76C 275.88998 204.67 279.37 204.18 283.12 201.98999C 287.27414 199.42758 290.78708 195.94885 293.38998 191.81999L293.38998 191.81999L293.44 190.54z" stroke="none" fill="#6DF183" fill-rule="nonzero" />
                        <path d="M283.17 172.62C 286.08002 170.94 288.44 172.29999 288.44 175.62C 288.23947 179.32951 286.28186 182.72098 283.17 184.75C 280.26 186.43 277.90002 185.07 277.90002 181.75C 278.10056 178.04048 280.05817 174.64902 283.17 172.62z" stroke="none" fill="#FFFFFF" fill-rule="nonzero" fill-opacity="0.69803923" />
                        <path d="M293.44 190.54C 293.44 185.01999 289.57 182.78 284.78 185.54L284.78 185.54L281.78 187.26999C 277 190.02998 273.12 196.74998 273.12 202.26999L273.12 202.26999L273.12 203.76C 275.88998 204.67 279.37 204.18 283.12 201.98999C 287.27414 199.42758 290.78708 195.94885 293.38998 191.81999L293.38998 191.81999L293.44 190.54z" stroke="none" fill="#FFFFFF" fill-rule="nonzero" fill-opacity="0.69803923" />
                        <path d="M251.73 224.84L272.63998 212.76999C 273.63998 212.21999 274.37 212.65999 274.37 213.76999L274.37 213.76999L274.37 214.45999C 274.3058 215.67897 273.66287 216.79384 272.63998 217.45999L272.63998 217.45999L251.72998 229.53C 250.77998 230.08 249.99998 229.63 249.99998 228.53L249.99998 228.53L249.99998 227.84C 250.06581 226.62149 250.70833 225.5073 251.73 224.84z" stroke="none" fill="#6DF183" fill-rule="nonzero" />
                        <path d="M251.73 224.84L272.63998 212.76999C 273.63998 212.21999 274.37 212.65999 274.37 213.76999L274.37 213.76999L274.37 214.45999C 274.3058 215.67897 273.66287 216.79384 272.63998 217.45999L272.63998 217.45999L251.72998 229.53C 250.77998 230.08 249.99998 229.63 249.99998 228.53L249.99998 228.53L249.99998 227.84C 250.06581 226.62149 250.70833 225.5073 251.73 224.84z" stroke="none" fill="#000000" fill-rule="nonzero" fill-opacity="0.09803922" />
                        <path d="M250.87 239.41L314.13 202.89C 314.6 202.61 314.99 202.83 314.99 203.39L314.99 203.39L314.99 210.77C 314.9543 211.37718 314.63596 211.93246 314.13 212.27L314.13 212.27L250.87001 248.79001C 250.39001 249.07 250.00002 248.84001 250.00002 248.29001L250.00002 248.29001L250.00002 240.91C 250.03484 240.30008 250.35786 239.74312 250.87 239.41z" stroke="none" fill="#6DF183" fill-rule="nonzero" />
                        <path d="M250.87 239.41L314.13 202.89C 314.6 202.61 314.99 202.83 314.99 203.39L314.99 203.39L314.99 210.77C 314.9543 211.37718 314.63596 211.93246 314.13 212.27L314.13 212.27L250.87001 248.79001C 250.39001 249.07 250.00002 248.84001 250.00002 248.29001L250.00002 248.29001L250.00002 240.91C 250.03484 240.30008 250.35786 239.74312 250.87 239.41z" stroke="none" fill="#FFFFFF" fill-rule="nonzero" fill-opacity="0.2" />
                        <path d="M251.73 257.67L272.63998 245.6C 273.63998 245.05 274.37 245.5 274.37 246.6L274.37 246.6L274.37 247.29001C 274.3074 248.50945 273.6641 249.625 272.63998 250.29001L272.63998 250.29001L251.72998 262.36002C 250.77998 262.92 249.99998 262.47 249.99998 261.36002L249.99998 261.36002L249.99998 260.67C 250.06898 259.45245 250.71074 258.33957 251.73 257.67z" stroke="none" fill="#6DF183" fill-rule="nonzero" />
                        <path d="M251.73 257.67L272.63998 245.6C 273.63998 245.05 274.37 245.5 274.37 246.6L274.37 246.6L274.37 247.29001C 274.3074 248.50945 273.6641 249.625 272.63998 250.29001L272.63998 250.29001L251.72998 262.36002C 250.77998 262.92 249.99998 262.47 249.99998 261.36002L249.99998 261.36002L249.99998 260.67C 250.06898 259.45245 250.71074 258.33957 251.73 257.67z" stroke="none" fill="#000000" fill-rule="nonzero" fill-opacity="0.09803922" />
                        <path d="M250.87 272.24L314.13 235.71999C 314.6 235.43999 314.99 235.66998 314.99 236.21999L314.99 236.21999L314.99 243.59999C 314.9543 244.20717 314.63596 244.76245 314.13 245.09999L314.13 245.09999L250.87001 281.62C 250.39001 281.9 250.00002 281.68 250.00002 281.12L250.00002 281.12L250.00002 273.74C 250.03484 273.13004 250.35786 272.5731 250.87 272.24z" stroke="none" fill="#6DF183" fill-rule="nonzero" />
                        <path d="M250.87 272.24L314.13 235.71999C 314.6 235.43999 314.99 235.66998 314.99 236.21999L314.99 236.21999L314.99 243.59999C 314.9543 244.20717 314.63596 244.76245 314.13 245.09999L314.13 245.09999L250.87001 281.62C 250.39001 281.9 250.00002 281.68 250.00002 281.12L250.00002 281.12L250.00002 273.74C 250.03484 273.13004 250.35786 272.5731 250.87 272.24z" stroke="none" fill="#FFFFFF" fill-rule="nonzero" fill-opacity="0.2" />
                        <path d="M276.1 276.43L301.1 262.02C 302.1 261.46 302.84 261.91 302.84 263.02L302.84 263.02L302.84 270.74C 302.7735 271.96085 302.12665 273.07608 301.1 273.74L301.1 273.74L276.1 288.16C 275.1 288.71 274.37 288.26 274.37 287.16L274.37 287.16L274.37 279.43C 274.44055 278.2129 275.0819 277.10068 276.1 276.43z" stroke="none" fill="#6DF183" fill-rule="nonzero" />
                        <path d="M276.1 276.43L301.1 262.02C 302.1 261.46 302.84 261.91 302.84 263.02L302.84 263.02L302.84 270.74C 302.7735 271.96085 302.12665 273.07608 301.1 273.74L301.1 273.74L276.1 288.16C 275.1 288.71 274.37 288.26 274.37 287.16L274.37 287.16L274.37 279.43C 274.44055 278.2129 275.0819 277.10068 276.1 276.43z" stroke="none" fill="#000000" fill-rule="nonzero" fill-opacity="0.09803922" />
					</g>
					<g>
                        <path d="M335.3 243.85C 335.3 243.85 323.02 226.91 322.3 224.85C 321.72998 223.33 322.3 221.07 322.47998 220.02C 322.65997 218.97 322.81998 216.63 322.99997 216.02C 323.29996 214.88 321.82996 215.11 320.99997 216.15001C 320.16998 217.19002 319.88998 219.27 319.45996 219.61002C 319.02994 219.95003 315.75995 215.18002 314.04996 212.98001C 312.33997 210.78 311.26996 209.44002 310.21997 210.26001C 309.46997 210.85 310.02997 212.13 311.26996 214.01001C 311.99417 215.02235 312.66183 216.07394 313.26996 217.16C 313.45996 217.57 312.43997 217.6 311.88995 218.45C 311.45996 219.11 311.88995 220.18 311.28995 220.69C 310.52548 221.27171 310.31897 222.33432 310.80994 223.16C 311.9231 224.90807 313.3586 226.42842 315.03995 227.64C 316.87994 228.91 317.61993 229.36 318.70996 231.09C 319.8 232.81999 329.57996 250.48999 330.23996 251.54999C 330.89996 252.60999 332.16995 254.76999 334.09995 254.82999C 336.02994 254.88998 351.82996 241.29 352.63995 240.60999C 355.23996 238.43999 356.06995 238.12999 356.50995 240.07999C 356.66187 240.7732 356.7754 241.47426 356.84995 242.18C 357.15994 244.65999 358.84995 253.51999 358.84995 253.51999C 358.84995 253.51999 366.84995 257.38998 373.41995 255.51999C 379.98996 253.65 382.20996 250.85999 382.20996 250.85999L382.20996 250.85999L378.91995 245.49998C 379.80997 243.28998 383.91995 234.32999 385.24994 228.05998L385.24994 228.05998L364.64993 224.72998C 364.22992 224.63998 363.54993 224.46999 362.64993 224.23997C 361.51993 223.93997 358.64993 222.94998 356.47992 224.84998C 349.39993 231.01997 335.31992 243.84998 335.31992 243.84998" stroke="none" fill="#FFA8A7" fill-rule="nonzero" />
                        <path d="M376.14 347.79L372.45 352.92C 374.12698 353.70297 375.95944 354.09613 377.81 354.07C 381.12 354.19 382.03 353.07 382.15 352.85C 382.71 351.65 381.84 349.49002 381.6 347.63L381.6 347.63L376.14 347.79z" stroke="none" fill="#37474F" fill-rule="nonzero" />
                        <path d="M372.66 350.46C 372.66 350.46 368.18 350.16998 365.09 349.78998C 362 349.40997 359.55 350.90997 360.27 352.18C 360.99 353.45 362.69998 354.50998 365.36 355.4C 367.62997 356.16998 370.36 356.72 372.71997 357.4C 375.07996 358.08 376.71997 358.97 378.08997 358.49C 379.61996 357.96 380.27997 357.34998 380.14996 356.22998C 379.81604 354.6369 379.40216 353.06152 378.90997 351.50998L378.90997 351.50998L372.66 350.46z" stroke="none" fill="#37474F" fill-rule="nonzero" />
                        <path d="M382.15 342.64C 382.15 342.64 381.59 347.30002 381.55 348.30002C 381.50998 349.30002 377 349.62003 376.13998 347.79L376.13998 347.79L375.99997 342.09L382.15 342.64z" stroke="none" fill="#F28F8F" fill-rule="nonzero" />
                        <path d="M377.61 345.5L379.21997 352.58C 379.21997 352.58 379.36996 353.43997 375.68997 353.99C 372.00998 354.54 366.22998 352.06 365.23996 351.56C 364.24994 351.06 364.13995 350.05 367.75995 350.25C 371.37994 350.45 372.65994 350.46 372.65994 350.46L372.65994 350.46L371.47995 347.33L377.61 345.5z" stroke="none" fill="#FFA8A7" fill-rule="nonzero" />
                        <path d="M385.19 228L387.74 227.29C 387.74 227.29 393.06998 244.15999 393.66 245.79C 394.25003 247.42 394.92 249.14 393.77 251.15C 392.4 253.54 385.19 263.15 385.19 263.15L385.19 263.15L380.61002 258.66998L385.81003 249.14998L381.21002 239.84998L385.19 228z" stroke="none" fill="#F28F8F" fill-rule="nonzero" />
                        <path d="M359 206.09C 357.78488 203.80878 357.82642 201.06339 359.11 198.81999C 361.65 194.10999 367.31 191.81999 374.05 192.68999C 377.16998 193.09999 380.84998 195.68999 382.86 199.55998C 385.08 203.84998 385.28998 212.48999 385.86 215.75998L385.86 215.75998L359 206.09z" stroke="none" fill="#37474F" fill-rule="nonzero" />
                        <path d="M358.82 207.94C 358.82 207.94 357.22 210.99 357.5 211.27C 357.9147 211.51224 358.36795 211.68137 358.84 211.77L358.84 211.77L358.82 207.94z" stroke="none" fill="#FFA8A7" fill-rule="nonzero" />
                        <path d="M363.68 198.3C 361.94 199.43001 358.94 201.51001 358.81 208.36C 358.66998 215.36 359.66998 217.67 360.71 218.48C 361.41 219.03 365.52 218.75 367.28 218.34C 369.04 217.93 374.11 215.42 375.94 211.61C 378.09 207.13 377.65 200.61 374.46 198.61C 371.1595 196.65833 367.08722 196.54121 363.68 198.3z" stroke="none" fill="#FFA8A7" fill-rule="nonzero" />
                        <path d="M382.15 250.82C 385.22998 255.62001 388.15 259.82 388.79 265.24002C 390.11002 276.63004 385.79 289.65002 384.86002 298.08002C 386.60895 300.47784 387.61713 303.33554 387.76 306.30002C 387.76 309.79 382.15002 342.64 382.15002 342.64C 382.15002 342.64 378.07004 343.88 376.00003 342.09003L376.00003 342.09003L372.15002 281.66003L374.15002 274.30005L382.15 250.82z" stroke="none" fill="#6DF183" fill-rule="nonzero" />
                        <path d="M382.15 250.82C 385.22998 255.62001 388.15 259.82 388.79 265.24002C 390.11002 276.63004 385.79 289.65002 384.86002 298.08002C 386.60895 300.47784 387.61713 303.33554 387.76 306.30002C 387.76 309.79 382.15002 342.64 382.15002 342.64C 382.15002 342.64 378.07004 343.88 376.00003 342.09003L376.00003 342.09003L372.15002 281.66003L374.15002 274.30005L382.15 250.82z" stroke="none" fill="#000000" fill-rule="nonzero" fill-opacity="0.2" />
                        <path d="M372.15 281.66L374.15 274.30002C 377.97937 273.29196 381.67282 271.82465 385.15 269.93002C 385.15 269.93002 383.07 273.72003 377.09 275.80002L377.09 275.80002L374 285.25L373.74 306.9L372.15 281.66z" stroke="none" fill="#6DF183" fill-rule="nonzero" />
                        <path d="M372.15 281.66L374.15 274.30002C 377.97937 273.29196 381.67282 271.82465 385.15 269.93002C 385.15 269.93002 383.07 273.72003 377.09 275.80002L377.09 275.80002L374 285.25L373.74 306.9L372.15 281.66z" stroke="none" fill="#000000" fill-rule="nonzero" fill-opacity="0.29803923" />
                        <path d="M382.15 250.82C 383.8 253.52 387.74 258.12 386.9 262.55002C 385.9 267.91 383 271.68002 374.18 274.30002L374.18 274.30002L365.9 304.30002C 365.9 304.30002 370.21 308.30002 371.53 312.17C 372.85 316.04 377.61 345.52002 377.61 345.52002C 377.61 345.52002 376.12997 347.93002 371.47998 347.35C 371.47998 347.35 355.27 310.35 354.12997 307.94C 352.7463 305.49933 352.26154 302.651 352.75998 299.89C 353.27 296.01 358.75998 253.54001 358.75998 253.54001L358.75998 253.54001L382.15 250.82z" stroke="none" fill="#6DF183" fill-rule="nonzero" />
                        <path d="M382.15 250.82C 383.8 253.52 387.74 258.12 386.9 262.55002C 385.9 267.91 383 271.68002 374.18 274.30002L374.18 274.30002L365.9 304.30002C 365.9 304.30002 370.21 308.30002 371.53 312.17C 372.85 316.04 377.61 345.52002 377.61 345.52002C 377.61 345.52002 376.12997 347.93002 371.47998 347.35C 371.47998 347.35 355.27 310.35 354.12997 307.94C 352.7463 305.49933 352.26154 302.651 352.75998 299.89C 353.27 296.01 358.75998 253.54001 358.75998 253.54001L358.75998 253.54001L382.15 250.82z" stroke="none" fill="#000000" fill-rule="nonzero" fill-opacity="0.2" />
                        <path d="M385.19 228L364.59 224.67C 364.16998 224.58 363.49 224.41 362.59 224.18C 362.59 224.18 361.71 237.09999 356.41998 240.06C 356.55 240.68 356.65997 241.37 356.75998 242.16C 357.06998 244.64 358.75998 253.5 358.75998 253.5C 358.75998 253.5 366.75998 257.37 373.33 255.5C 379.9 253.63 382.12 250.84 382.12 250.84L382.12 250.84L378.83 245.48C 379.75 243.25 383.89 234.29 385.19 228z" stroke="none" fill="#6DF183" fill-rule="nonzero" />
                        <path d="M385.19 228L364.59 224.67C 364.16998 224.58 363.49 224.41 362.59 224.18C 362.59 224.18 361.71 237.09999 356.41998 240.06C 356.55 240.68 356.65997 241.37 356.75998 242.16C 357.06998 244.64 358.75998 253.5 358.75998 253.5C 358.75998 253.5 366.75998 257.37 373.33 255.5C 379.9 253.63 382.12 250.84 382.12 250.84L382.12 250.84L378.83 245.48C 379.75 243.25 383.89 234.29 385.19 228z" stroke="none" fill="#FFFFFF" fill-rule="nonzero" fill-opacity="0.69803923" />
                        <path d="M379.76 243.35C 377.02423 244.99277 374.1579 246.40752 371.19 247.58C 373.8838 247.52625 376.52103 246.79732 378.86002 245.46L378.86002 245.46L379.76 243.35z" stroke="none" fill="#6DF183" fill-rule="nonzero" />
                        <path d="M363.17 198.64C 363.17 198.64 362.17 205.14 364.53 208.95999C 364.53 208.95999 365.41 206.37 367.6 206.85999C 369.79 207.34998 369.91 210.23999 368.37 211.85999C 367.57126 212.78723 366.3124 213.17577 365.13 212.85999C 365.13 212.85999 364.78 217.55998 364.59 221.49998C 364.4 225.43999 363.36 234.02998 367.79 237.49998C 372.22003 240.96999 383.34 242.18999 388.55002 234.90999C 391.45 230.85999 387.6 223.69998 385.81003 215.66998C 384.16003 208.28998 383.23004 197.34998 375.40002 195.58998C 367.57 193.82999 363.17 198.64 363.17 198.64z" stroke="none" fill="#37474F" fill-rule="nonzero" />
					</g>
					<g>
                        <path d="M391.9 109.83L390.25 110.83C 390.3885 110.24291 390.46558 109.64302 390.48 109.04C 390.48 105.69 388.13 104.340004 385.23 106.04C 384.34744 106.57236 383.55997 107.248314 382.90002 108.04C 382.90002 103.54 379.74002 101.71 375.84003 103.96C 371.67184 106.678314 369.04947 111.221054 368.78003 116.19C 368.78003 116.420006 368.78003 116.64 368.78003 116.86C 367.77542 116.73359 366.7585 116.967445 365.91003 117.520004C 362.81076 119.53957 360.86053 122.91622 360.66003 126.61C 360.65955 127.03338 360.7031 127.45566 360.79004 127.87L360.79004 127.87L359.91003 128.38C 357.52002 129.76001 355.58005 132.45001 355.58005 134.38C 355.58005 136.31 357.52005 136.77 359.91003 135.38L359.91003 135.38L391.91003 116.93001C 394.30005 115.55001 396.24002 112.86001 396.24002 110.93001C 396.24002 109.00001 394.29 108.44 391.9 109.83z" stroke="none" fill="#EBEBEB" fill-rule="nonzero" />
					</g>
				</g>
			</g>
		</g>
	</g>
</g>
</svg>